<svg width="60" height="61" viewBox="0 0 60 61" fill="none" xmlns="http://www.w3.org/2000/svg">
<g clip-path="url(#clip0_131_653)">
<path fill-rule="evenodd" clip-rule="evenodd" d="M56.2576 15.991C58.6402 20.2921 59.9996 25.2396 59.9996 30.5001C59.9996 35.7578 58.6454 40.7 56.2653 44.9986C56.2576 45.0114 56.2499 45.0243 56.2422 45.0396C51.1768 54.1549 41.5001 60.3615 30.3744 60.4974C30.3154 60.5 30.2564 60.5 30.1974 60.5H29.9999C18.7199 60.5 8.88701 54.2625 3.76505 45.0501C3.75735 45.0373 3.74966 45.0244 3.74197 45.009C1.35931 40.7079 0 35.7605 0 30.5C0 25.2423 1.35419 20.3001 3.73428 16.0015C3.74198 15.9886 3.74967 15.9758 3.75737 15.9604C8.87919 6.74274 18.7149 0.5 30.0001 0.5H30.1976C30.2566 0.5 30.3156 0.5 30.3746 0.502565C41.4976 0.638496 51.1697 6.84005 56.2352 15.9499C56.2429 15.9627 56.2506 15.9755 56.2582 15.9909L56.2576 15.991ZM5.52911 18.0915C3.63377 21.8181 2.56427 26.0374 2.56427 30.4995C2.56427 34.9699 3.63633 39.1913 5.53423 42.9207C9.36595 41.9896 13.1952 41.2767 17.027 40.7791C16.4935 37.5783 16.2011 34.1135 16.2011 30.4997C16.2011 26.8911 16.4935 23.4336 17.0244 20.2381C13.1927 19.7431 9.36083 19.0275 5.52905 18.0888L5.52911 18.0915ZM19.5687 20.5358C19.0506 23.6314 18.7685 26.9912 18.7685 30.5026C18.7685 34.0189 19.0532 37.3836 19.5738 40.4846C26.655 39.7434 33.7362 39.7485 40.8174 40.5077C41.3406 37.3992 41.6253 34.0265 41.6253 30.5027C41.6253 26.9711 41.3381 23.5909 40.8148 20.4794C33.7336 21.2463 26.6525 21.2693 19.5713 20.5384L19.5687 20.5358ZM43.3545 20.1716C43.8931 23.3878 44.1881 26.868 44.1881 30.5022C44.1881 34.1287 43.8931 37.6037 43.3571 40.8124C47.0606 41.3048 50.7639 42.0024 54.4677 42.9104C56.363 39.1838 57.4325 34.9645 57.4325 30.5024C57.4325 26.032 56.3605 21.8106 54.4626 18.0812C50.7591 18.9815 47.0583 19.6791 43.3545 20.1716ZM53.1362 15.7628C49.4379 9.97159 43.6237 5.66004 36.7888 3.91617C37.4966 4.7061 38.1712 5.62688 38.7995 6.66815C40.5179 9.515 41.926 13.2825 42.8723 17.6507C46.2937 17.1993 49.7148 16.5682 53.1362 15.7628ZM40.3225 17.9531C39.4479 14.0034 38.1707 10.5896 36.6035 7.99148C34.8159 5.0292 32.7077 3.13898 30.3301 3.06971C30.266 3.06971 30.2019 3.06715 30.1378 3.06715C27.7295 3.09536 25.5956 4.99584 23.7874 7.99148C22.2127 10.5999 20.9303 14.034 20.0557 18.0095C26.8112 18.6918 33.5668 18.6712 40.3197 17.9531L40.3225 17.9531ZM17.5064 17.7171C18.4528 13.3211 19.8686 9.52762 21.5946 6.6656C22.2563 5.57043 22.9668 4.60868 23.7183 3.79051C16.6601 5.44732 10.6458 9.83306 6.85737 15.7731C10.407 16.6169 13.9589 17.2632 17.509 17.7146L17.5064 17.7171ZM6.86525 45.2421C10.6559 51.1745 16.6653 55.555 23.7183 57.2115C22.9694 56.3934 22.2563 55.4316 21.5946 54.3365C19.8711 51.4793 18.458 47.6939 17.5115 43.3053C13.9619 43.7593 10.4147 44.4061 6.86525 45.2421ZM20.0638 43.0108C20.9383 46.9785 22.2181 50.4078 23.7929 53.0105C25.6011 56.0061 27.735 57.904 30.1433 57.9348C30.2074 57.9348 30.2715 57.9348 30.3356 57.9323C32.7106 57.863 34.8188 55.9728 36.609 53.0105C38.1786 50.4099 39.4584 46.991 40.3331 43.0338C33.5775 42.3234 26.822 42.3208 20.0665 43.0107L20.0638 43.0108ZM42.8798 43.334C41.9334 47.7095 40.5228 51.4847 38.8019 54.3343C38.1735 55.3756 37.5015 56.2938 36.7911 57.0863C43.6313 55.3423 49.448 51.0232 53.1491 45.2272C49.7252 44.4141 46.3039 43.7828 42.8798 43.334Z" fill="#EA5239"/>
</g>
<defs>
<clipPath id="clip0_131_653">
<rect width="59.9996" height="60" fill="white" transform="translate(0 0.5)"/>
</clipPath>
</defs>
</svg>
