<svg width="44" height="61" viewBox="0 0 44 61" fill="none" xmlns="http://www.w3.org/2000/svg">
<g clip-path="url(#clip0_131_651)">
<path d="M25.5211 0.69156C24.1684 0.207844 22.6919 0.660626 21.8426 1.81928L1.03768 30.3132C0.32055 31.2947 0.219318 32.5771 0.770515 33.6598C1.32172 34.7453 2.41854 35.4175 3.63345 35.4175H17.4866L16.2127 57.0972C16.1283 58.5286 16.9804 59.8194 18.3303 60.306C18.6931 60.4353 19.0643 60.5 19.4271 60.5C20.4282 60.5 21.3873 60.0303 22.0059 59.1811L42.9599 30.4899C43.677 29.5112 43.7811 28.226 43.2327 27.1433C42.6815 26.0605 41.5847 25.3856 40.3697 25.3856H26.3676L27.6387 3.90534C27.7231 2.47107 26.8709 1.18021 25.5182 0.693744L25.5211 0.69156ZM40.37 28.3871C40.4037 28.3871 40.4993 28.3871 40.5584 28.5024C40.6174 28.6177 40.5612 28.6908 40.5415 28.7218L19.5875 57.413C19.551 57.4608 19.4919 57.5423 19.3457 57.4861C19.1966 57.4327 19.2022 57.3342 19.2051 57.2752L20.5718 34.0066C20.5971 33.596 20.4481 33.191 20.164 32.8901C19.88 32.5892 19.4863 32.4204 19.0729 32.4204H3.62791C3.59416 32.4204 3.49854 32.4204 3.43949 32.3051C3.38043 32.1898 3.43667 32.1139 3.45636 32.0858L24.2642 3.58895C24.2923 3.55239 24.3289 3.49614 24.4132 3.49614C24.4385 3.49614 24.4695 3.50176 24.5032 3.51301C24.6523 3.56645 24.6467 3.66488 24.6438 3.72393L23.2771 26.796C23.2518 27.2094 23.4008 27.6143 23.6849 27.9125C23.9689 28.2134 24.3626 28.3821 24.776 28.3821H40.37L40.37 28.3871Z" fill="#EA5239"/>
</g>
<defs>
<clipPath id="clip0_131_651">
<rect width="43.1629" height="60" fill="white" transform="translate(0.418457 0.5)"/>
</clipPath>
</defs>
</svg>
