<svg width="54" height="61" viewBox="0 0 54 61" fill="none" xmlns="http://www.w3.org/2000/svg">
<g clip-path="url(#clip0_131_655)">
<path d="M27.0004 0.5C25.6607 0.5 24.3335 0.771873 23.1044 1.29376L4.15844 9.32179C1.66227 10.378 0.0380859 12.8156 0.0380859 15.5V32.1656C0.0380859 34.2844 0.470975 37.1719 1.33361 39.2563C4.97049 48.0403 11.5969 56.5156 23.2021 59.9844C24.3934 60.3406 25.8531 60.5 27.0001 60.5C28.1471 60.5 29.6069 60.3406 30.7981 59.9844C42.4041 56.5125 49.0298 48.0403 52.6666 39.2563C53.5292 37.175 53.9621 34.2844 53.9621 32.1656V15.5C53.9621 12.8156 52.338 10.3781 49.8418 9.32179L30.8958 1.29376C29.6667 0.771884 28.34 0.5 27.0004 0.5ZM27.0004 3.83441C27.8851 3.83441 28.754 4.01254 29.5692 4.35629L48.5217 12.3907C49.7824 12.9251 50.5945 14.1407 50.5945 15.5001V32.1657C50.5945 33.7282 50.0952 36.6689 49.5486 37.9939C46.1613 46.178 40.3288 53.6532 29.8253 56.7972C29.2344 56.9722 27.7145 57.166 27.0004 57.166C26.2863 57.166 24.7665 56.9722 24.1756 56.7972C13.6729 53.6534 7.8432 46.1756 4.45555 37.9939C3.90575 36.669 3.4065 33.7314 3.4065 32.1657V15.5001C3.4065 14.1407 4.21855 12.925 5.48244 12.3876L24.4316 4.35316C25.2468 4.00941 26.1156 3.83441 27.0004 3.83441Z" fill="#EA5239"/>
<path d="M27.0002 18.8345C26.0681 18.8345 25.3161 19.5813 25.3161 20.5001V22.1657C22.545 22.1657 20.2605 24.4251 20.2605 27.1657C20.2605 29.9064 22.545 32.1657 25.3161 32.1657H28.6876C29.6513 32.1657 30.3717 32.8813 30.3717 33.8313C30.3717 34.7845 29.6481 35.4969 28.6876 35.4969H25.3161C24.3524 35.5001 23.6288 34.7844 23.6288 33.8345C23.6288 32.9126 22.8736 32.1688 21.9447 32.1688C21.0126 32.1688 20.2606 32.9157 20.2606 33.8345C20.2606 36.5751 22.5451 38.8345 25.3162 38.8345V40.5001C25.3162 41.4219 26.0714 42.1657 27.0003 42.1657C27.9324 42.1657 28.6844 41.4188 28.6844 40.5001V38.8345C31.4555 38.8345 33.74 36.5751 33.74 33.8344C33.74 31.0938 31.4555 28.8344 28.6844 28.8344H25.3129C24.3524 28.8344 23.6288 28.1188 23.6288 27.1657C23.6288 26.2126 24.3524 25.5001 25.3129 25.5001H28.6844C29.6481 25.5001 30.3685 26.2157 30.3685 27.1657C30.3685 28.0875 31.1237 28.8313 32.0527 28.8313C32.9847 28.8313 33.7368 28.0844 33.7368 27.1657C33.7368 24.4251 31.4523 22.1657 28.6812 22.1657L28.6843 20.5001C28.6843 19.5782 27.9323 18.8345 27.0002 18.8345Z" fill="#EA5239"/>
</g>
<defs>
<clipPath id="clip0_131_655">
<rect width="53.924" height="60" fill="white" transform="translate(0.0380859 0.5)"/>
</clipPath>
</defs>
</svg>
