<svg width="44" height="61" viewBox="0 0 44 61" fill="none" xmlns="http://www.w3.org/2000/svg">
<g clip-path="url(#clip0_131_658)">
<path d="M2.54098 60.0689L6.66644 55.6731L10.7919 60.0689C11.0502 60.3432 11.4098 60.499 11.7866 60.499C12.1635 60.499 12.5244 60.3432 12.7814 60.0675L16.8989 55.6758L21.015 60.0675C21.529 60.6189 22.4905 60.6189 23.0045 60.0675L27.1206 55.6758L31.2368 60.0675C31.4938 60.3432 31.8547 60.499 32.2315 60.499C32.6084 60.499 32.9693 60.3432 33.2263 60.0675L37.3438 55.6758L41.4599 60.0675C41.7222 60.3485 42.0844 60.499 42.4546 60.499C42.6238 60.499 42.7929 60.4684 42.9553 60.4031C43.476 60.198 43.8183 59.6947 43.8183 59.1354V1.86361C43.8183 1.1099 43.2084 0.5 42.4546 0.5H1.54623C0.792515 0.5 0.182617 1.1099 0.182617 1.86361V59.1354C0.182617 59.6947 0.524852 60.198 1.0442 60.4031C1.56354 60.6109 2.15613 60.4777 2.54098 60.0689ZM2.90984 3.22723H41.091V55.6864L38.3385 52.7488C38.0815 52.4731 37.7206 52.3173 37.3438 52.3173C36.9669 52.3173 36.606 52.4731 36.349 52.7488L32.2315 57.1406L28.1154 52.7488C27.6014 52.1975 26.6399 52.1975 26.1259 52.7488L22.0098 57.1406L17.8936 52.7488C17.6366 52.4731 17.2757 52.3173 16.8989 52.3173C16.522 52.3173 16.1611 52.4731 15.9041 52.7488L11.7853 57.1419L7.66119 52.7474C7.40284 52.4731 7.0433 52.3173 6.66644 52.3173C6.28958 52.3173 5.93004 52.4731 5.6717 52.7474L2.90985 55.6904L2.90984 3.22723Z" fill="#EA5239"/>
<path d="M38.3634 30.4995H5.63672V33.2267H38.3634V30.4995Z" fill="#EA5239"/>
<path d="M38.3634 38.6812H5.63672V41.4084H38.3634V38.6812Z" fill="#EA5239"/>
<path d="M38.3634 46.8628H5.63672V49.59H38.3634V46.8628Z" fill="#EA5239"/>
<path d="M21.9994 5.86432C21.1484 5.86432 20.4618 6.55381 20.4618 7.40195V8.93958C17.9317 8.93958 15.8459 11.0254 15.8459 13.5554C15.8459 16.0855 17.9317 18.1713 20.4618 18.1713H23.54C24.4199 18.1713 25.0776 18.8319 25.0776 19.7089C25.0776 20.5888 24.417 21.2465 23.54 21.2465H20.4618C19.5819 21.2494 18.9213 20.5888 18.9213 19.7118C18.9213 18.8608 18.2318 18.1742 17.3837 18.1742C16.5326 18.1742 15.846 18.8636 15.846 19.7118C15.846 22.2419 17.9318 24.3276 20.4619 24.3276V25.8653C20.4619 26.7163 21.1514 27.4029 21.9995 27.4029C22.8505 27.4029 23.5371 26.7134 23.5371 25.8653V24.3276C26.0672 24.3276 28.153 22.2419 28.153 19.7118C28.153 17.1817 26.0672 15.0959 23.5371 15.0959H20.4589C19.5819 15.0959 18.9213 14.4353 18.9213 13.5554C18.9213 12.6755 19.5819 12.0178 20.4589 12.0178H23.5371C24.417 12.0178 25.0748 12.6784 25.0748 13.5554C25.0748 14.4064 25.7643 15.0931 26.6124 15.0931C27.4634 15.0931 28.15 14.4036 28.15 13.5554C28.15 11.0254 26.0643 8.93958 23.5342 8.93958L23.5371 7.40195C23.5371 6.55093 22.8505 5.86432 21.9994 5.86432Z" fill="#EA5239"/>
</g>
<defs>
<clipPath id="clip0_131_658">
<rect width="43.6356" height="60" fill="white" transform="translate(0.181641 0.5)"/>
</clipPath>
</defs>
</svg>
