<svg width="20" height="16" viewBox="0 0 20 16" fill="none" xmlns="http://www.w3.org/2000/svg">
<path d="M10.8316 9.54238C7.41196 9.72822 4.19344 11.2552 2.20421 13.632C1.89959 13.996 1.62002 14.5231 1.31843 14.8396C0.908634 15.2698 0.153535 15.0947 0.0620545 14.5556C-0.111999 13.5303 0.103399 12.1031 0.418912 11.1019C1.68691 7.07851 5.95124 4.05916 10.8318 3.84231L10.8417 0.90066C10.9988 0.09446 12.0776 -0.281789 12.8356 0.241266L19.6811 6.10811C19.9921 6.48089 20.0173 6.87654 19.7592 7.27675C17.4917 9.34364 15.1047 11.3401 12.734 13.3229C12.1548 13.6813 11.2547 13.4696 10.9532 12.9217C10.9287 12.8771 10.8316 12.6535 10.8316 12.6258V9.54238Z" fill="#EA5239"/>
</svg>
