<svg width="20" height="16" viewBox="0 0 20 16" fill="none" xmlns="http://www.w3.org/2000/svg">
<path d="M10.8316 9.85256C7.41196 10.0384 4.19344 11.5653 2.20421 13.9422C1.89959 14.3062 1.62002 14.8332 1.31843 15.1498C0.908634 15.58 0.153535 15.4049 0.0620545 14.8658C-0.111999 13.8405 0.103399 12.4133 0.418912 11.4121C1.68691 7.3887 5.95124 4.36934 10.8318 4.15249L10.8417 1.21084C10.9988 0.404641 12.0776 0.0283919 12.8356 0.551447L19.6811 6.41829C19.9921 6.79107 20.0173 7.18672 19.7592 7.58694C17.4917 9.65382 15.1047 11.6503 12.734 13.6331C12.1548 13.9915 11.2547 13.7798 10.9532 13.2318C10.9287 13.1873 10.8316 12.9637 10.8316 12.936V9.85256Z" fill="#EBE969"/>
</svg>
