<svg width="70" height="47" viewBox="0 0 70 47" fill="none" xmlns="http://www.w3.org/2000/svg">
<g clip-path="url(#clip0_131_664)">
<path d="M23.2449 0.256409C27.5327 0.256409 31.5515 1.41907 35.0003 3.44588C38.4491 1.41907 42.4679 0.256409 46.7557 0.256409C53.1729 0.256409 58.9853 2.85933 63.1913 7.06526C67.3972 11.2712 70.0001 17.0836 70.0001 23.5C70.0001 29.9164 67.3972 35.7288 63.1913 39.9347C58.9853 44.1406 53.1729 46.7436 46.7557 46.7436C42.4679 46.7436 38.4491 45.5809 35.0003 43.5541C31.5515 45.5809 27.5327 46.7436 23.2449 46.7436C16.8277 46.7436 11.0153 44.1406 6.80934 39.9347C2.60341 35.7288 0.000488281 29.9164 0.000488281 23.5C0.000488281 17.0836 2.60341 11.2712 6.80934 7.06527C11.0153 2.85934 16.8277 0.256411 23.2449 0.256409ZM8.20871 37.1325H27.9295C26.3848 35.0021 25.1917 32.5993 24.4372 30.0095H4.01583C4.91741 32.6759 6.35942 35.0935 8.20871 37.1325ZM30.468 40.0809H11.5374C14.8453 42.4201 18.885 43.7951 23.2449 43.7951C26.4892 43.7951 29.5551 43.0337 32.2755 41.6804C31.6455 41.1783 31.0424 40.6448 30.468 40.0809ZM3.26045 27.0611H23.7836C23.6043 25.9001 23.5121 24.7105 23.5121 23.5C23.5121 22.2886 23.6052 21.099 23.7836 19.938H3.26132C3.05594 21.0946 2.9489 22.2842 2.9489 23.5C2.9489 24.7148 3.05594 25.9054 3.26045 27.0611ZM4.0167 16.9896H24.4372C25.1917 14.3997 26.3848 11.997 27.9304 9.8666H8.20958C6.35942 11.9056 4.91916 14.3232 4.0167 16.9896ZM11.5392 6.91819H30.4689C31.0433 6.35514 31.6463 5.82167 32.2755 5.31954C29.5551 3.96629 26.4892 3.20482 23.2449 3.20482C18.885 3.20482 14.8461 4.57895 11.5392 6.91819ZM37.7251 5.31954C38.4091 5.86518 39.0618 6.44738 39.6796 7.06526C43.8856 11.2712 46.4885 17.0827 46.4885 23.5C46.4885 29.9172 43.8856 35.7288 39.6796 39.9347C39.0618 40.5526 38.4091 41.1348 37.7251 41.6804C40.4455 43.0337 43.5114 43.7951 46.7557 43.7951C52.361 43.7951 57.4363 41.5229 61.1079 37.8513C64.7795 34.1797 67.0517 29.1044 67.0517 23.5C67.0517 17.8956 64.7795 12.8202 61.1079 9.14865C57.4363 5.47705 52.361 3.20482 46.7557 3.20482C43.5114 3.20482 40.4455 3.96629 37.7251 5.31954ZM35.0003 6.95387C29.6761 10.7421 26.4605 16.8678 26.4605 23.5C26.4605 30.1313 29.6761 36.2579 35.0003 40.0461C35.9262 39.3873 36.7948 38.6528 37.5963 37.8513C41.2679 34.1797 43.5401 29.1053 43.5401 23.5C43.5401 17.8947 41.2679 12.8202 37.5963 9.14865C36.7948 8.34715 35.9262 7.61265 35.0003 6.95387Z" fill="#EA5239"/>
</g>
<defs>
<clipPath id="clip0_131_664">
<rect width="69.9996" height="46.4871" fill="white" transform="translate(0.000488281 0.25647)"/>
</clipPath>
</defs>
</svg>
